<?xml version="1.0" standalone="no"?>
<!DOCTYPE svg PUBLIC "-//W3C//DTD SVG 20010904//EN"
 "http://www.w3.org/TR/2001/REC-SVG-20010904/DTD/svg10.dtd">
<svg version="1.0" xmlns="http://www.w3.org/2000/svg"
 width="512.000000pt" height="512.000000pt" viewBox="0 0 512.000000 512.000000"
 preserveAspectRatio="xMidYMid meet">
<metadata>
Created by potrace 1.14, written by Peter Selinger 2001-2017
</metadata>
<g transform="translate(0.000000,512.000000) scale(0.100000,-0.100000)"
fill="#000000" stroke="none">
<path d="M3315 4294 c-165 -67 -334 -136 -375 -153 l-75 -30 3 -478 2 -478 33
-30 c18 -16 53 -46 77 -67 25 -20 56 -46 70 -58 40 -34 52 -44 305 -254 132
-110 258 -215 280 -235 63 -56 156 -135 175 -148 15 -11 16 61 16 990 l-1
1002 -35 11 c-19 7 -66 20 -105 31 l-70 19 -300 -122z"/>
<path d="M3898 4318 c-2 -7 -3 -467 -3 -1022 1 -1008 1 -1008 22 -1025 11 -9
39 -31 62 -49 l41 -34 0 1055 0 1055 -47 16 c-56 19 -70 20 -75 4z"/>
<path d="M4119 4259 c-1 -8 -2 -495 -3 -1083 l-1 -1068 55 -47 c30 -26 62 -52
71 -59 15 -11 16 79 17 1108 l0 1120 -57 16 c-31 9 -62 19 -68 21 -7 3 -13 -1
-14 -8z"/>
<path d="M4323 3070 l0 -1140 73 -60 73 -60 0 1179 0 1179 -69 21 c-37 12 -70
21 -73 21 -2 0 -4 -513 -4 -1140z"/>
<path d="M2465 2754 c-220 -190 -424 -367 -454 -392 -30 -26 -71 -61 -90 -78
-104 -92 -283 -244 -288 -244 -5 0 -153 119 -168 136 -5 6 -52 46 -104 88
l-93 77 -27 -24 c-14 -13 -98 -86 -186 -162 -88 -76 -174 -149 -190 -164 -17
-14 -77 -66 -135 -116 -58 -49 -110 -94 -116 -100 -6 -5 -35 -30 -64 -55 -30
-25 -77 -65 -105 -90 -28 -25 -75 -66 -105 -92 -30 -25 -68 -58 -85 -72 -35
-30 -27 -28 -135 -31 -47 -2 -91 -3 -97 -4 -9 -1 -13 -23 -13 -76 l0 -75 78 0
c92 -1 4991 -1 5010 0 8 0 12 22 12 75 0 53 -4 75 -12 76 -7 1 -65 1 -128 1
l-114 0 -151 126 c-82 70 -152 129 -155 132 -3 3 -59 50 -125 105 -66 55 -125
104 -131 110 -12 12 -46 40 -279 235 -93 78 -181 152 -195 164 -14 11 -93 77
-175 146 -83 69 -152 127 -155 130 -3 3 -30 25 -60 50 -30 25 -57 47 -60 51
-3 3 -90 77 -195 164 -104 87 -215 180 -246 207 -30 26 -57 48 -60 48 -2 -1
-184 -156 -404 -346z m491 -151 c44 -38 102 -86 129 -108 27 -22 70 -58 95
-80 25 -22 68 -58 95 -80 27 -22 81 -67 120 -101 38 -33 124 -105 190 -160 66
-54 126 -104 133 -111 7 -7 34 -29 60 -50 26 -21 49 -40 52 -43 3 -3 34 -30
70 -60 36 -30 67 -57 70 -60 3 -3 85 -72 182 -153 98 -81 179 -151 182 -156 3
-4 -650 -7 -1451 -7 l-1456 0 29 24 c16 13 43 36 59 51 17 14 140 120 275 236
135 115 247 212 250 215 3 3 52 46 110 95 58 49 107 92 110 95 3 3 52 46 110
95 58 50 110 95 116 100 6 6 22 19 35 30 13 11 95 82 182 158 87 75 162 137
166 137 4 0 43 -30 87 -67z m-1583 -618 c53 -44 96 -83 96 -86 1 -3 -36 -37
-80 -75 -112 -95 -120 -102 -149 -127 -14 -12 -57 -49 -95 -82 -39 -33 -72
-62 -75 -65 -3 -3 -34 -30 -69 -60 l-64 -55 -199 -1 c-109 0 -197 2 -196 6 2
4 37 35 78 70 41 35 80 68 85 74 6 6 39 36 75 66 36 30 67 57 70 60 3 3 82 71
175 150 94 80 186 159 205 177 19 18 38 32 41 30 4 -1 49 -38 102 -82z"/>
<path d="M2800 2250 c-88 -24 -153 -93 -176 -185 l-6 -25 116 0 116 0 0 104
c0 111 -4 119 -50 106z"/>
<path d="M2895 2151 l0 -106 107 -3 107 -3 -15 43 c-32 91 -84 143 -165 166
l-35 9 1 -106z"/>
<path d="M2630 1980 c-16 -10 10 -77 47 -119 33 -39 91 -73 146 -85 l28 -7 -3
108 -3 107 -102 1 c-57 1 -107 -1 -113 -5z"/>
<path d="M2899 1985 c-1 0 -3 -48 -4 -106 l-1 -107 26 8 c75 21 127 66 160
135 34 69 33 70 -80 70 -55 0 -101 0 -101 0z"/>
<path d="M1617 1262 c-15 -3 -18 -13 -17 -55 3 -92 3 -90 -22 -73 -44 31 -113
14 -139 -36 -25 -47 -15 -162 17 -189 30 -24 72 -28 111 -8 45 23 47 23 39 4
-4 -11 1 -15 18 -15 l24 0 -1 185 c0 102 -3 187 -6 189 -3 1 -14 1 -24 -2z
m-47 -162 c24 -13 37 -56 30 -104 -4 -31 -12 -44 -35 -58 -59 -34 -95 -2 -95
85 0 73 44 107 100 77z"/>
<path d="M1996 1263 c-3 -3 -6 -89 -6 -190 l0 -184 23 3 c22 3 22 4 22 181 0
155 -2 180 -16 188 -9 4 -19 5 -23 2z"/>
<path d="M3415 1263 c-6 -2 -10 -30 -9 -68 2 -68 -5 -85 -26 -60 -14 17 -57
20 -93 6 -46 -18 -74 -128 -49 -191 24 -60 91 -81 147 -44 23 15 25 15 25 0 0
-9 8 -16 20 -16 19 0 20 7 20 188 0 191 -1 197 -35 185z m-9 -242 c1 -54 -17
-82 -62 -95 -75 -23 -101 156 -26 182 22 8 33 5 57 -13 26 -20 30 -29 31 -74z"/>
<path d="M2630 1181 c0 -22 -6 -30 -25 -35 -29 -7 -24 -36 6 -36 17 0 19 -8
19 -94 0 -73 4 -98 16 -110 20 -21 90 -21 97 -1 7 17 -6 27 -26 19 -31 -11
-45 22 -44 103 l2 78 33 5 c18 3 33 8 32 13 0 4 0 12 0 17 0 6 -6 10 -12 9
-45 -6 -58 1 -58 31 0 23 -4 30 -20 30 -15 0 -20 -7 -20 -29z"/>
<path d="M450 1019 c0 -129 0 -130 22 -127 21 3 22 8 23 90 1 99 16 128 67
128 38 0 48 -28 48 -136 0 -77 2 -84 20 -84 11 0 20 3 21 8 0 4 2 45 2 90 2
78 4 85 29 107 33 29 63 23 75 -14 5 -14 8 -63 6 -108 -2 -82 -2 -83 23 -83
24 0 24 1 24 95 0 65 -5 105 -15 124 -23 46 -67 54 -120 21 -32 -20 -32 -20
-50 0 -24 26 -75 26 -109 -1 l-26 -20 0 20 c0 14 -6 21 -20 21 -19 0 -20 -7
-20 -131z"/>
<path d="M914 1140 c-26 -10 -38 -26 -29 -39 3 -6 19 -4 39 4 57 24 96 9 96
-36 0 -27 -3 -29 -36 -29 -93 0 -148 -76 -94 -130 25 -25 95 -27 122 -3 17 15
18 15 18 0 0 -11 8 -17 21 -17 20 0 21 4 17 111 -3 102 -5 112 -27 130 -25 20
-89 25 -127 9z m109 -151 c4 -14 -2 -29 -18 -45 -28 -28 -51 -30 -76 -8 -32
29 2 74 57 74 24 0 33 -5 37 -21z"/>
<path d="M1150 1020 c0 -129 0 -130 23 -130 22 0 23 3 22 83 -2 94 4 111 44
132 27 13 31 13 50 -3 19 -15 22 -28 23 -114 1 -97 1 -98 25 -98 24 0 24 1 22
88 -2 100 -11 139 -36 158 -27 20 -77 17 -107 -7 l-26 -20 0 20 c0 14 -6 21
-20 21 -19 0 -20 -7 -20 -130z"/>
<path d="M1754 1140 c-26 -10 -38 -26 -29 -39 3 -6 18 -5 38 3 56 23 97 9 97
-34 0 -29 -2 -30 -44 -30 -85 0 -135 -75 -86 -128 26 -27 94 -30 122 -5 17 15
18 15 18 0 0 -11 8 -17 21 -17 20 0 21 4 17 111 -3 102 -5 112 -27 130 -25 20
-89 25 -127 9z m109 -144 c15 -40 -55 -93 -87 -66 -21 17 -20 57 2 69 25 15
79 13 85 -3z"/>
<path d="M2144 1140 c-26 -10 -38 -26 -29 -39 3 -6 18 -5 38 3 56 23 97 9 97
-34 0 -28 -2 -30 -40 -30 -46 0 -95 -21 -104 -45 -12 -32 -6 -65 15 -86 18
-18 30 -21 71 -17 28 3 54 12 59 19 7 11 9 10 9 -3 0 -11 8 -18 20 -18 18 0
19 7 17 111 -3 103 -4 113 -26 130 -25 20 -89 25 -127 9z m106 -160 c0 -55
-89 -82 -103 -31 -9 34 19 61 64 61 37 0 39 -2 39 -30z"/>
<path d="M2340 1138 c0 -16 66 -206 80 -230 6 -12 5 -30 -5 -59 -8 -23 -15
-45 -15 -50 0 -7 39 -4 45 3 3 4 117 326 119 335 0 4 -9 9 -20 11 -19 3 -25
-9 -55 -97 -18 -56 -36 -101 -39 -101 -3 0 -16 35 -29 78 -13 42 -29 87 -34
100 -11 23 -47 31 -47 10z"/>
<path d="M2807 1143 c-3 -5 -5 -63 -6 -130 l0 -123 25 0 c22 0 25 4 24 28 -6
92 1 149 21 171 15 16 28 21 45 17 21 -6 24 -3 24 19 0 20 -5 25 -27 25 -15 0
-37 -10 -50 -22 l-23 -21 0 21 c0 21 -23 31 -33 15z"/>
<path d="M3008 1138 c-17 -6 -28 -17 -28 -29 0 -20 10 -24 26 -10 5 4 24 11
42 14 36 7 72 -18 72 -52 0 -15 -10 -19 -56 -23 -65 -6 -97 -31 -97 -77 0 -44
28 -71 75 -71 22 0 48 5 59 10 13 8 19 7 19 0 0 -6 10 -10 22 -8 20 3 22 8 21
83 -1 44 -2 90 -2 103 -1 13 -12 34 -26 47 -26 27 -76 32 -127 13z m112 -153
c0 -51 -70 -86 -100 -50 -16 19 -5 62 18 68 9 3 32 5 50 6 28 1 32 -2 32 -24z"/>
<path d="M3554 1116 c-34 -34 -39 -52 -35 -125 2 -38 25 -77 54 -92 25 -14
110 -13 137 1 25 14 28 45 3 35 -10 -4 -37 -10 -60 -12 -35 -5 -45 -1 -67 20
-27 27 -35 69 -13 66 6 -1 47 -1 90 0 74 1 77 2 77 25 0 71 -44 116 -116 116
-28 0 -44 -8 -70 -34z m122 -17 c8 -6 14 -22 14 -35 0 -23 -3 -24 -65 -24 -70
0 -78 8 -47 46 27 34 67 39 98 13z"/>
<path d="M3983 1138 c-38 -18 -56 -67 -51 -137 5 -69 23 -95 74 -110 36 -10
92 6 108 31 16 26 3 30 -39 12 -51 -21 -80 -8 -95 43 -16 52 1 119 33 129 26
9 58 6 72 -7 12 -12 35 -12 35 1 0 6 -9 19 -20 30 -22 22 -80 26 -117 8z"/>
<path d="M4194 1116 c-19 -19 -35 -45 -35 -57 -7 -122 24 -170 110 -171 79 -1
125 50 125 137 0 82 -42 125 -122 125 -37 0 -50 -6 -78 -34z m142 -34 c20 -26
17 -106 -5 -133 -22 -27 -83 -32 -107 -7 -21 21 -29 91 -14 127 21 51 92 58
126 13z"/>
<path d="M4460 1093 c-1 -32 -2 -91 -3 -131 -2 -71 -2 -72 23 -72 25 0 25 0
23 87 -1 77 1 91 20 111 11 12 32 22 48 22 35 0 48 -37 47 -130 -1 -90 0 -90
22 -90 18 0 20 7 20 88 0 80 2 91 23 110 26 24 57 28 75 10 8 -8 12 -47 12
-111 0 -96 0 -98 23 -95 20 3 22 8 24 83 3 106 -10 153 -45 166 -34 13 -89 3
-101 -18 -8 -15 -11 -14 -36 5 -35 28 -75 28 -109 1 l-26 -20 0 20 c0 14 -6
21 -20 21 -18 0 -20 -7 -20 -57z"/>
<path d="M3807 936 c-10 -26 3 -46 30 -46 21 0 24 4 21 28 -3 31 -41 44 -51
18z"/>
</g>
</svg>
